<svg height="128" width="128" xmlns="http://www.w3.org/2000/svg" xmlns:xlink="http://www.w3.org/1999/xlink"
    version="1.1" x="0px" y="0px" viewBox="0 0 100 100" style="width: 128px; height: 128px;">
    <path
        d="M95.582,56.668L78.018,35.04L65.6,50.332l-15.568-19.17l-15.6,19.21L21.982,35.04L4.418,56.668l1.164,0.945l9.523-11.726 l3.473,4.276l3.436-4.232l3.438,4.231l3.44-4.236l4.575,5.634L20.203,67.894l1.164,0.945l16.867-20.77l5.956,7.335l5.896-7.261 l5.896,7.261l5.902-7.268l16.813,20.703l1.164-0.945L66.566,51.521l4.575-5.634l3.473,4.276l3.436-4.232l3.438,4.231l3.44-4.236 l9.491,11.687L95.582,56.668z M25.451,47.784l-3.438-4.232l-3.436,4.232l-2.507-3.085l5.911-7.278l5.943,7.318L25.451,47.784z M55.982,53.024l-5.896-7.261l-5.896,7.261L39.2,46.88l10.832-13.339l10.886,13.406L55.982,53.024z M81.486,47.784l-3.438-4.232 l-3.436,4.232l-2.507-3.085l5.911-7.279l5.943,7.318L81.486,47.784z">
    </path>
</svg>